<svg version="1.2" baseProfile="tiny-ps" xmlns="http://www.w3.org/2000/svg" viewBox="0 0 500 500" width="500" height="500"><title>New Project</title><style>tspan { white-space:pre }.shp0 { fill: #283040 } </style><path id="Shape 1" class="shp0" d="M250 500C111.75 500 0 388.25 0 250C0 111.75 111.75 0 250 0C388.25 0 500 111.75 500 250C500 388.25 388.25 500 250 500Z" /><path id="1 " fill="#b5d5d8" aria-label="1"  d="M240.67 124C200.77 126.1 175.92 178.95 178.72 194.35C181.17 210.1 199.02 218.15 211.62 217.8C224.22 217.45 244.17 205.2 244.17 205.2C246.27 237.75 242.42 266.45 236.12 289.55C229.82 312.65 224.57 353.95 245.22 365.5C265.52 377.05 287.57 359.55 293.52 348C299.12 336.8 312.42 305.3 318.37 220.25C324.32 135.2 280.92 122.25 240.67 124Z" /></svg>