<svg version="1.2" baseProfile="tiny-ps" xmlns="http://www.w3.org/2000/svg" viewBox="0 0 500 500" width="500" height="500"><title>New Project</title><style>tspan { white-space:pre }.shp0 { fill: #283040 } </style><path id="Shape 1" class="shp0" d="M250 500C111.75 500 0 388.25 0 250C0 111.75 111.75 0 250 0C388.25 0 500 111.75 500 250C500 388.25 388.25 500 250 500Z" /><path id="2 " fill="#b5d5d8" aria-label="2"  d="M331.67 281.9C320.47 278.05 295.27 284 295.27 284C316.27 259.85 326.42 212.6 323.97 175.5C321.17 138.4 297.72 123 271.82 123C231.22 123 202.17 147.5 183.27 168.15C164.37 188.8 151.07 231.85 160.52 244.45C169.62 257.05 196.92 250.75 207.77 241.3C218.97 231.85 239.27 196.5 251.52 196.5C263.42 196.5 265.87 213.3 258.52 229.75C251.52 246.55 216.87 302.9 209.52 329.5C201.82 356.1 222.82 376.75 265.87 364.15C308.92 351.55 334.12 333 341.12 315.85C348.47 298.35 342.52 285.75 331.67 281.9Z" /></svg>