<svg version="1.2" baseProfile="tiny-ps" xmlns="http://www.w3.org/2000/svg" viewBox="0 0 500 500" width="500" height="500"><title>New Project</title><style>tspan { white-space:pre }.shp0 { fill: #283040 } </style><path id="Shape 1" class="shp0" d="M250 500C111.75 500 0 388.25 0 250C0 111.75 111.75 0 250 0C388.25 0 500 111.75 500 250C500 388.25 388.25 500 250 500Z" /><path id="3 " fill="#b5d5d8" aria-label="3"  d="M257.72 127C179.67 127 151.32 178.1 159.72 201.9C167.77 225.7 218.87 208.2 231.82 204.7C244.42 201.55 260.52 202.25 263.67 211C267.17 219.75 251.77 234.8 227.97 243.9C204.52 253 197.17 262.45 197.17 272.25C197.17 282.05 209.77 288.7 218.87 291.5C227.97 294.3 233.57 301.65 221.67 312.85C209.77 324.05 176.87 343.3 176.17 352.75C175.12 362.2 189.12 372 213.62 372C238.47 372 288.52 351.7 306.37 321.25C323.87 291.15 308.12 267.7 295.52 261.75C327.72 242.15 347.32 217.65 347.32 194.55C347.32 171.45 335.42 127 257.72 127Z" /></svg>