<svg version="1.2" baseProfile="tiny-ps" xmlns="http://www.w3.org/2000/svg" viewBox="0 0 500 500" width="500" height="500"><title>New Project</title><style>tspan { white-space:pre }.shp0 { fill: #283040 } </style><path id="Shape 1" class="shp0" d="M250 500C111.75 500 0 388.25 0 250C0 111.75 111.75 0 250 0C388.25 0 500 111.75 500 250C500 388.25 388.25 500 250 500Z" /><path id="4 " fill="#b5d5d8" aria-label="4"  d="M307.67 144.5C284.92 144.5 278.62 164.8 277.57 190C276.87 203.3 275.47 221.85 273.02 241.45C266.02 245.65 256.22 249.5 247.47 246.35C231.72 241.1 232.42 210.65 239.42 188.6C246.42 166.2 251.32 136.8 237.32 129.1C220.17 121.05 186.22 134.35 168.72 180.9C151.22 227.45 147.02 285.9 192.87 301.65C221.57 311.45 247.47 306.2 262.52 301.3C256.22 333.5 253.07 363.6 271.97 370.95C292.27 378.65 326.92 342.25 336.02 273.65C345.47 205.05 351.07 144.5 307.67 144.5Z" /></svg>