<svg width="203" height="151" viewBox="0 0 203 151" fill="none" xmlns="http://www.w3.org/2000/svg">
<path d="M200.917 0.000183105C199.766 0.000183105 198.833 0.932979 198.833 2.08355C198.803 28.5343 177.368 49.9694 150.918 49.9993H110.114L131.559 28.5581C132.359 27.7306 132.336 26.4116 131.508 25.6122C130.701 24.8326 129.421 24.8326 128.614 25.6122L103.614 50.6118C102.8 51.4243 102.798 52.7434 103.611 53.558C103.612 53.5592 103.613 53.5606 103.614 53.5617L128.614 78.5613C129.413 79.3888 130.732 79.4117 131.56 78.6125C132.387 77.8131 132.41 76.4943 131.611 75.6666C131.594 75.6492 131.577 75.6323 131.56 75.6155L110.114 54.1658H150.917C179.668 54.1336 202.968 30.8344 203 2.08335C203 0.932979 202.067 0.000183105 200.917 0.000183105Z" fill="#E1E5EA"/>
<path d="M130.084 79.1652C129.532 79.1662 129.001 78.9475 128.61 78.5569L103.61 53.5573C102.797 52.7438 102.797 51.4251 103.61 50.6114L128.61 25.6119C129.437 24.8127 130.756 24.8355 131.555 25.6631C132.335 26.4705 132.335 27.7503 131.555 28.5575L108.031 52.0825L131.555 75.6071C132.37 76.4196 132.372 77.7387 131.559 78.5533C131.168 78.9449 130.638 79.1652 130.084 79.1652Z" fill="#E1E5EA"/>
<path d="M150.918 54.1658H105.085C103.934 54.1658 103.002 53.233 103.002 52.0825C103.002 50.9319 103.934 49.9991 105.085 49.9991H150.918C177.368 49.9692 198.804 28.5341 198.833 2.08336C198.833 0.932796 199.766 0 200.917 0C202.067 0 203 0.932796 203 2.08336C202.968 30.8344 179.668 54.1338 150.918 54.1658Z" fill="#E1E5EA"/>
<path d="M79.1971 53.0833C79.1971 54.2339 78.2643 55.1667 77.1137 55.1667C50.663 55.1966 29.2278 76.6318 29.198 103.082V143.886L50.6392 122.441C51.4667 121.641 52.7856 121.664 53.585 122.492C54.3647 123.299 54.3647 124.579 53.585 125.386L28.5855 150.386C27.773 151.2 26.4539 151.202 25.6392 150.389C25.6381 150.388 25.6367 150.387 25.6355 150.386L0.635957 125.386C-0.191568 124.587 -0.214417 123.268 0.584787 122.44C1.38419 121.613 2.70292 121.59 3.53064 122.389C3.54802 122.406 3.56501 122.423 3.58181 122.44L25.0314 143.886V103.083C25.0637 74.3316 48.3629 51.0324 77.1139 51.0002C78.2643 51.0002 79.1971 51.9328 79.1971 53.0833Z" fill="#E1E5EA"/>
<path d="M0.0320257 123.916C0.0310492 124.468 0.249793 124.999 0.640412 125.39L25.64 150.39C26.4534 151.203 27.7722 151.203 28.5858 150.39L53.5854 125.39C54.3846 124.563 54.3617 123.244 53.5342 122.445C52.7268 121.665 51.4469 121.665 50.6397 122.445L27.1148 145.969L3.59016 122.445C2.77768 121.63 1.45856 121.628 0.643928 122.441C0.252333 122.832 0.0320257 123.362 0.0320257 123.916Z" fill="#E1E5EA"/>
<path d="M25.0314 103.082V148.915C25.0314 150.066 25.9642 150.998 27.1148 150.998C28.2653 150.998 29.1981 150.066 29.1981 148.915V103.082C29.228 76.6316 50.6632 55.1964 77.1139 55.1667C78.2645 55.1667 79.1973 54.2339 79.1973 53.0834C79.1973 51.9328 78.2645 51 77.1139 51C48.3628 51.0322 25.0635 74.3316 25.0314 103.082Z" fill="#E1E5EA"/>
</svg>
