<svg width="581" height="131" viewBox="0 0 581 131" fill="none" xmlns="http://www.w3.org/2000/svg">
<mask id="mask0" mask-type="alpha" maskUnits="userSpaceOnUse" x="0" y="0" width="581" height="131">
<rect x="581" y="131" width="581" height="131" transform="rotate(-180 581 131)" fill="#C4C4C4"/>
</mask>
<g mask="url(#mask0)">
<path fill-rule="evenodd" clip-rule="evenodd" d="M0.21492 0.498749C8.75862 12.9099 38.2018 23.6667 74.6012 25.3211C78.6547 25.5011 82.7031 25.5843 86.7464 25.5843C138.687 25.5843 189.795 11.7523 239.326 11.7523C249.483 11.7523 259.573 12.3352 269.591 13.7372C305.045 18.5367 324.039 32.2721 328.154 45.5105C332.269 58.9128 324.671 72.1539 323.72 85.3924C323.088 98.6308 330.368 113.027 357.592 122.296C375.275 128.245 398.78 130.901 423.09 130.901C454.907 130.901 488.106 126.346 511.43 118.654C552.9 105.085 569.993 84.729 578.223 65.0365C585.822 46.8346 576.959 10.7586 533.588 0.498749H0.21492Z" fill="#E1E5EA"/>
<path fill-rule="evenodd" clip-rule="evenodd" d="M274.766 65.695C280.443 65.695 286.386 65.2176 292.654 64.1203C315.745 60.0815 336.559 41.3468 337.807 22.2694C338.608 9.2944 330.871 -10.1256 310.741 -19.9204C303.101 -23.5703 296.741 -24.787 290.34 -24.787C285.585 -24.787 280.81 -24.1131 275.479 -23.2738C217.707 -14.3723 159.462 -3.66513 100.65 -3.66513C95.309 -3.66513 89.963 -3.75363 84.6119 -3.93845C87.797 5.94479 88.1385 16.3402 91.4358 26.2235C94.8503 36.1914 102.928 51.746 115.781 56.1274C119.002 57.244 122.121 57.7137 125.209 57.7137C140.631 57.7137 155.308 46.0324 178.909 45.3856C179.521 45.3701 180.132 45.3625 180.739 45.3625C212.04 45.3625 237.716 65.695 274.766 65.695V65.695Z" fill="#B5D5D8"/>
<path fill-rule="evenodd" clip-rule="evenodd" d="M233.371 17.159C233.371 22.8479 235.657 29.0744 242.734 34.1368C259.547 46.2257 285.054 27.4278 306.595 35.4575C330.497 44.431 337.109 92.139 378.391 86.285C404.423 82.5432 421.384 42.1622 421.384 15.3559C421.384 9.66276 420.622 4.58335 419.018 0.596046C418.544 -0.631432 389.35 -6.9595 385.951 -7.24313C354.209 -9.605 322.184 -9.51186 290.442 -6.77328C275.229 -5.44839 259.83 -3.93728 244.715 -1.76583C240.842 -1.19863 242.544 -1.5754 238.954 1.92094C236.686 4.24052 233.371 10.3103 233.371 17.159V17.159Z" fill="#63868A"/>
<path fill-rule="evenodd" clip-rule="evenodd" d="M468.85 73.7737C473.591 73.7737 477.433 77.6162 477.433 82.3563C477.433 84.6326 476.529 86.8156 474.919 88.4252C473.31 90.0348 471.127 90.939 468.85 90.939C464.11 90.939 460.268 87.0964 460.268 82.3563C460.268 77.6162 464.11 73.7737 468.85 73.7737V73.7737Z" fill="#63868A"/>
<path fill-rule="evenodd" clip-rule="evenodd" d="M238.549 77.191C241.41 77.191 243.73 79.5036 243.73 82.3564C243.73 83.7263 243.184 85.0401 242.212 86.0088C241.24 86.9775 239.923 87.5217 238.549 87.5217C235.687 87.5217 233.367 85.2091 233.367 82.3564C233.367 79.5036 235.687 77.191 238.549 77.191V77.191Z" fill="#B5D5D8"/>
<path fill-rule="evenodd" clip-rule="evenodd" d="M66.6982 40.6844C71.4382 40.6844 75.2808 44.527 75.2808 49.2671C75.2808 51.5434 74.3766 53.7264 72.767 55.336C71.1575 56.9456 68.9744 57.8498 66.6982 57.8498C61.9581 57.8498 58.1155 54.0072 58.1155 49.2671C58.1155 44.527 61.9581 40.6844 66.6982 40.6844V40.6844Z" fill="#B5D5D8"/>
<path fill-rule="evenodd" clip-rule="evenodd" d="M15.8189 65.6975C18.6804 65.6975 21 68.0102 21 70.8629C21 72.2328 20.4542 73.5467 19.4825 74.5154C18.5109 75.484 17.193 76.0283 15.8189 76.0283C12.9575 76.0283 10.6378 73.7156 10.6378 70.8629C10.6378 68.0102 12.9575 65.6975 15.8189 65.6975V65.6975Z" fill="#63868A"/>
</g>
</svg>
