<svg width="1200" height="956" viewBox="0 0 1200 956" fill="none" xmlns="http://www.w3.org/2000/svg">
<mask id="mask0" mask-type="alpha" maskUnits="userSpaceOnUse" x="0" y="0" width="1200" height="675">
<rect width="1200" height="675" fill="#C4C4C4"/>
</mask>
<g mask="url(#mask0)">
<path fill-rule="evenodd" clip-rule="evenodd" d="M453.139 658.146C477.128 658.146 498.433 656.988 496.491 652.703C494.655 648.811 462.129 644.638 455.148 641.998C439.35 636.026 425.199 627.824 413.443 617.953C385.882 595.296 361.629 527.053 292.725 518.989C289.358 518.602 286.016 518.416 282.706 518.416C236.252 518.416 195.42 554.337 178.445 562.775C170.278 566.718 160.951 568.704 151.574 568.704C142.799 568.704 133.982 566.96 126.079 563.467C94.8375 549.149 94.4753 515.794 81.6082 489.936C65.0778 457.97 26.6742 435.45 -18.3399 431.147C-15.2199 500.779 -20.5462 570.554 -34.1377 639.501C24.8384 647.279 84.9176 648.811 144.635 650.337C227.13 652.566 309.626 654.646 392.13 656.596C398.502 656.807 427.364 658.146 453.139 658.146V658.146Z" fill="#E1E5EA"/>
<path fill-rule="evenodd" clip-rule="evenodd" d="M290.71 723.77C376.603 723.77 461.758 719.9 562.828 710.665C555.508 701.902 553.846 684.011 549.016 676.72C538.535 660.448 468.832 624.071 384.981 614.645C369.716 612.933 355.434 612.233 341.957 612.233C281.601 612.233 237.369 626.278 192.942 626.278C185.883 626.278 178.824 625.922 171.698 625.103C113.467 618.403 149.075 585.044 20.8055 581.362C37.443 625.249 32.9482 670.095 28.4534 714.496C126.169 720.246 208.775 723.77 290.71 723.77V723.77Z" fill="#B5D5D8"/>
<path fill-rule="evenodd" clip-rule="evenodd" d="M485.528 618.507C485.528 614.93 488.419 612.031 491.985 612.031C493.697 612.031 495.34 612.713 496.551 613.928C497.761 615.142 498.442 616.79 498.442 618.507C498.442 622.084 495.551 624.984 491.985 624.984C488.419 624.984 485.528 622.084 485.528 618.507V618.507Z" fill="#B5D5D8"/>
<path fill-rule="evenodd" clip-rule="evenodd" d="M237.666 585.874C237.666 579.949 242.469 575.146 248.394 575.146C251.239 575.146 253.968 576.276 255.98 578.288C257.992 580.3 259.122 583.029 259.122 585.874C259.122 591.799 254.319 596.603 248.394 596.603C242.469 596.603 237.666 591.799 237.666 585.874V585.874Z" fill="#63868A"/>
<path fill-rule="evenodd" clip-rule="evenodd" d="M-10.8505 486.022C-11.5727 486.022 -12.2949 486.031 -13.0171 486.05C-20.9195 486.157 -28.7195 487.82 -36.0022 490.938C-43.5924 494.372 -43.1777 497.284 -42.0315 505.187C-39.0168 524.842 -35.895 544.395 -32.7778 563.947L-23.8317 621.253C-20.9195 639.659 -14.8902 660.046 -14.8902 678.662C-14.578 680.218 -14.2659 681.989 -13.0171 682.925C-12.02 683.471 -10.939 683.778 -9.78346 683.778C-9.61572 683.778 -9.44798 683.769 -9.27558 683.755C41.559 684.957 92.4122 685.73 143.261 685.73C206.732 685.73 270.198 684.528 333.595 681.467C288.254 665.866 241.352 655.675 193.62 651.206C172.406 649.123 149.835 647.875 132.26 635.708C114.27 623.122 105.226 601.491 98.2552 580.69C91.2893 559.893 85.0503 537.946 70.2799 521.725C62.0652 512.778 51.5628 506.124 40.8508 500.402C25.0506 492.201 7.23285 486.022 -10.8505 486.022H-10.8505Z" fill="#63868A"/>
<path fill-rule="evenodd" clip-rule="evenodd" d="M161.683 533.645C161.683 530.068 164.574 527.169 168.14 527.169C169.852 527.169 171.495 527.851 172.705 529.066C173.916 530.28 174.597 531.927 174.597 533.645C174.597 537.222 171.706 540.121 168.14 540.121C164.574 540.121 161.683 537.222 161.683 533.645V533.645Z" fill="#B5D5D8"/>
<path fill-rule="evenodd" clip-rule="evenodd" d="M14.2897 405.418C14.2897 399.493 19.0929 394.69 25.018 394.69C27.8634 394.69 30.5922 395.82 32.6041 397.832C34.6161 399.844 35.7464 402.573 35.7464 405.418C35.7464 411.343 30.9431 416.147 25.018 416.147C19.0929 416.147 14.2897 411.343 14.2897 405.418V405.418Z" fill="#63868A"/>
<path fill-rule="evenodd" clip-rule="evenodd" d="M749.394 21.8652C725.405 21.8652 704.1 23.0235 706.042 27.3082C707.878 31.2005 740.404 35.373 747.385 38.0136C763.183 43.9859 777.334 52.1878 789.09 62.0587C816.651 84.715 840.904 152.958 909.808 161.023C913.175 161.409 916.517 161.596 919.827 161.596C966.281 161.596 1007.11 125.675 1024.09 117.236C1032.25 113.294 1041.58 111.307 1050.96 111.307C1059.73 111.307 1068.55 113.051 1076.45 116.545C1107.7 130.862 1108.06 164.218 1120.92 190.075C1137.46 222.042 1175.86 244.561 1220.87 248.864C1217.75 179.233 1223.08 109.458 1236.67 40.5109C1177.69 32.7325 1117.62 31.2005 1057.9 29.6747C975.403 27.4452 892.907 25.3651 810.403 23.4159C804.031 23.2041 775.169 21.8652 749.394 21.8652V21.8652Z" fill="#E1E5EA"/>
<path fill-rule="evenodd" clip-rule="evenodd" d="M911.823 -43.7582C825.93 -43.7582 740.775 -39.8882 639.705 -30.6537C647.025 -21.891 648.687 -3.99937 653.517 3.29189C663.998 19.5636 733.701 55.9407 817.551 65.3666C832.817 67.0789 847.099 67.7783 860.576 67.7783C920.932 67.7783 965.164 53.7336 1009.59 53.7336C1016.65 53.7336 1023.71 54.0899 1030.83 54.9081C1089.07 61.6088 1053.46 94.9671 1181.73 98.649C1165.09 54.7629 1169.58 9.91671 1174.08 -34.4841C1076.36 -40.2346 993.758 -43.7582 911.823 -43.7582V-43.7582Z" fill="#B5D5D8"/>
<path fill-rule="evenodd" clip-rule="evenodd" d="M717.005 61.5043C717.005 65.0811 714.114 67.9807 710.548 67.9807C708.835 67.9807 707.193 67.2984 705.982 66.0838C704.771 64.8692 704.091 63.2219 704.091 61.5043C704.091 57.9275 706.982 55.0279 710.548 55.0279C714.114 55.0279 717.005 57.9275 717.005 61.5043V61.5043Z" fill="#B5D5D8"/>
<path fill-rule="evenodd" clip-rule="evenodd" d="M964.867 94.1372C964.867 100.062 960.064 104.866 954.139 104.866C951.294 104.866 948.565 103.735 946.553 101.723C944.541 99.7113 943.411 96.9825 943.411 94.1372C943.411 88.2121 948.214 83.4088 954.139 83.4088C960.064 83.4088 964.867 88.2121 964.867 94.1372V94.1372Z" fill="#63868A"/>
<path fill-rule="evenodd" clip-rule="evenodd" d="M1213.38 193.99C1214.11 193.99 1214.83 193.98 1215.55 193.962C1223.45 193.855 1231.25 192.191 1238.54 189.074C1246.13 185.639 1245.71 182.727 1244.56 174.824C1241.55 155.169 1238.43 135.617 1235.31 116.064L1226.36 58.7583C1223.45 40.3522 1217.42 19.9656 1217.42 1.34983C1217.11 -0.206539 1216.8 -1.97725 1215.55 -2.91387C1214.55 -3.45906 1213.47 -3.76661 1212.32 -3.76661C1212.15 -3.76661 1211.98 -3.75729 1211.81 -3.74331C1160.97 -4.94553 1110.12 -5.71906 1059.27 -5.71906C995.801 -5.71906 932.335 -4.51683 868.938 -1.45536C914.279 14.1456 961.181 24.3365 1008.91 28.8052C1030.13 30.8882 1052.7 32.137 1070.27 44.3037C1088.26 56.8897 1097.31 78.5204 1104.28 99.3216C1111.24 120.118 1117.48 142.066 1132.25 158.286C1140.47 167.233 1150.97 173.887 1161.68 179.61C1177.48 187.811 1195.3 193.99 1213.38 193.99V193.99Z" fill="#63868A"/>
<path fill-rule="evenodd" clip-rule="evenodd" d="M1040.85 146.366C1040.85 149.943 1037.96 152.843 1034.39 152.843C1032.68 152.843 1031.04 152.161 1029.83 150.946C1028.62 149.731 1027.94 148.084 1027.94 146.366C1027.94 142.79 1030.83 139.89 1034.39 139.89C1037.96 139.89 1040.85 142.79 1040.85 146.366V146.366Z" fill="#B5D5D8"/>
<path fill-rule="evenodd" clip-rule="evenodd" d="M1188.24 274.593C1188.24 280.518 1183.44 285.322 1177.51 285.322C1174.67 285.322 1171.94 284.191 1169.93 282.179C1167.92 280.167 1166.79 277.439 1166.79 274.593C1166.79 268.668 1171.59 263.865 1177.51 263.865C1183.44 263.865 1188.24 268.668 1188.24 274.593V274.593Z" fill="#63868A"/>
</g>
<mask id="mask1" mask-type="alpha" maskUnits="userSpaceOnUse" x="0" y="675" width="548" height="281">
<rect width="548" height="281" transform="matrix(1 0 0 -1 0 956)" fill="#C4C4C4"/>
</mask>
<g mask="url(#mask1)">
<path fill-rule="evenodd" clip-rule="evenodd" d="M453.139 691.854C477.128 691.854 498.433 693.012 496.491 697.297C494.655 701.189 462.129 705.362 455.148 708.002C439.35 713.974 425.199 722.176 413.443 732.047C385.882 754.704 361.629 822.947 292.725 831.011C289.358 831.398 286.016 831.584 282.706 831.584C236.252 831.584 195.42 795.663 178.445 787.225C170.278 783.282 160.951 781.296 151.574 781.296C142.799 781.296 133.982 783.04 126.079 786.533C94.8375 800.851 94.4753 834.206 81.6082 860.064C65.0778 892.03 26.6742 914.55 -18.3399 918.853C-15.2199 849.221 -20.5462 779.446 -34.1377 710.499C24.8384 702.721 84.9176 701.189 144.635 699.663C227.13 697.434 309.626 695.354 392.13 693.404C398.502 693.193 427.364 691.854 453.139 691.854V691.854Z" fill="#E1E5EA"/>
<path fill-rule="evenodd" clip-rule="evenodd" d="M290.71 626.23C376.603 626.23 461.758 630.1 562.828 639.335C555.508 648.098 553.846 665.989 549.016 673.28C538.535 689.552 468.832 725.929 384.981 735.355C369.716 737.067 355.434 737.767 341.957 737.767C281.601 737.767 237.369 723.722 192.942 723.722C185.883 723.722 178.824 724.078 171.698 724.897C113.467 731.597 149.075 764.956 20.8055 768.638C37.443 724.751 32.9482 679.905 28.4534 635.504C126.169 629.754 208.775 626.23 290.71 626.23V626.23Z" fill="#B5D5D8"/>
<path fill-rule="evenodd" clip-rule="evenodd" d="M485.528 731.493C485.528 735.07 488.419 737.969 491.985 737.969C493.697 737.969 495.34 737.287 496.551 736.072C497.761 734.858 498.442 733.21 498.442 731.493C498.442 727.916 495.551 725.016 491.985 725.016C488.419 725.016 485.528 727.916 485.528 731.493V731.493Z" fill="#B5D5D8"/>
<path fill-rule="evenodd" clip-rule="evenodd" d="M237.666 764.126C237.666 770.051 242.469 774.854 248.394 774.854C251.239 774.854 253.968 773.724 255.98 771.712C257.992 769.7 259.122 766.971 259.122 764.126C259.122 758.201 254.319 753.397 248.394 753.397C242.469 753.397 237.666 758.201 237.666 764.126V764.126Z" fill="#63868A"/>
<path fill-rule="evenodd" clip-rule="evenodd" d="M-10.8505 863.978C-11.5727 863.978 -12.2949 863.969 -13.0171 863.95C-20.9195 863.843 -28.7195 862.18 -36.0022 859.062C-43.5924 855.628 -43.1777 852.716 -42.0315 844.813C-39.0168 825.158 -35.895 805.605 -32.7778 786.053L-23.8317 728.747C-20.9195 710.341 -14.8902 689.954 -14.8902 671.338C-14.578 669.782 -14.2659 668.011 -13.0171 667.075C-12.02 666.529 -10.939 666.222 -9.78346 666.222C-9.61572 666.222 -9.44798 666.231 -9.27558 666.245C41.559 665.043 92.4122 664.27 143.261 664.27C206.732 664.27 270.198 665.472 333.595 668.533C288.254 684.134 241.352 694.325 193.62 698.794C172.406 700.877 149.835 702.125 132.26 714.292C114.27 726.878 105.226 748.509 98.2552 769.31C91.2893 790.107 85.0503 812.054 70.2799 828.275C62.0652 837.222 51.5628 843.876 40.8508 849.598C25.0506 857.799 7.23285 863.978 -10.8505 863.978H-10.8505Z" fill="#63868A"/>
<path fill-rule="evenodd" clip-rule="evenodd" d="M161.683 816.355C161.683 819.932 164.574 822.831 168.14 822.831C169.852 822.831 171.495 822.149 172.705 820.934C173.916 819.72 174.597 818.073 174.597 816.355C174.597 812.778 171.706 809.879 168.14 809.879C164.574 809.879 161.683 812.778 161.683 816.355V816.355Z" fill="#B5D5D8"/>
<path fill-rule="evenodd" clip-rule="evenodd" d="M14.2897 944.582C14.2897 950.507 19.0929 955.31 25.018 955.31C27.8634 955.31 30.5922 954.18 32.6041 952.168C34.6161 950.156 35.7464 947.427 35.7464 944.582C35.7464 938.657 30.9431 933.853 25.018 933.853C19.0929 933.853 14.2897 938.657 14.2897 944.582V944.582Z" fill="#63868A"/>
</g>
</svg>
