<svg width="581" height="131" viewBox="0 0 581 131" fill="none" xmlns="http://www.w3.org/2000/svg">
<mask id="mask0" mask-type="alpha" maskUnits="userSpaceOnUse" x="0" y="0" width="581" height="131">
<rect width="581" height="131" fill="#C4C4C4"/>
</mask>
<g mask="url(#mask0)">
<path fill-rule="evenodd" clip-rule="evenodd" d="M580.785 130.501C572.241 118.09 542.798 107.333 506.399 105.679C502.345 105.499 498.297 105.416 494.254 105.416C442.313 105.416 391.205 119.248 341.674 119.248C331.517 119.248 321.427 118.665 311.409 117.263C275.955 112.463 256.961 98.7279 252.846 85.4895C248.731 72.0872 256.329 58.8461 257.28 45.6076C257.912 32.3692 250.632 17.9732 223.408 8.70438C205.725 2.75528 182.22 0.098999 157.91 0.098999C126.093 0.098999 92.8942 4.65414 69.5698 12.3464C28.0996 25.9152 11.0071 46.271 2.77673 65.9635C-4.82167 84.1654 4.04057 120.241 47.4116 130.501H580.785Z" fill="#E1E5EA"/>
<path fill-rule="evenodd" clip-rule="evenodd" d="M306.234 65.305C300.557 65.305 294.614 65.7824 288.346 66.8797C265.255 70.9185 244.441 89.6532 243.193 108.731C242.392 121.706 250.129 141.126 270.259 150.92C277.899 154.57 284.259 155.787 290.66 155.787C295.415 155.787 300.19 155.113 305.521 154.274C363.293 145.372 421.538 134.665 480.35 134.665C485.691 134.665 491.037 134.754 496.388 134.938C493.203 125.055 492.862 114.66 489.564 104.777C486.15 94.8086 478.072 79.254 465.219 74.8726C461.998 73.756 458.879 73.2863 455.791 73.2863C440.369 73.2863 425.692 84.9676 402.091 85.6144C401.479 85.6299 400.868 85.6375 400.261 85.6375C368.96 85.6375 343.284 65.305 306.234 65.305Z" fill="#B5D5D8"/>
<path fill-rule="evenodd" clip-rule="evenodd" d="M347.629 113.841C347.629 108.152 345.343 101.926 338.266 96.8632C321.453 84.7743 295.946 103.572 274.405 95.5425C250.503 86.569 243.891 38.861 202.609 44.715C176.577 48.4568 159.616 88.8378 159.616 115.644C159.616 121.337 160.378 126.417 161.982 130.404C162.456 131.631 191.65 137.959 195.049 138.243C226.791 140.605 258.816 140.512 290.558 137.773C305.771 136.448 321.17 134.937 336.285 132.766C340.158 132.199 338.456 132.575 342.046 129.079C344.314 126.759 347.629 120.69 347.629 113.841Z" fill="#63868A"/>
<path fill-rule="evenodd" clip-rule="evenodd" d="M112.15 57.2263C107.409 57.2263 103.567 53.3838 103.567 48.6437C103.567 46.3674 104.471 44.1844 106.081 42.5748C107.69 40.9652 109.873 40.061 112.15 40.061C116.89 40.061 120.732 43.9036 120.732 48.6437C120.732 53.3838 116.89 57.2263 112.15 57.2263Z" fill="#63868A"/>
<path fill-rule="evenodd" clip-rule="evenodd" d="M342.451 53.809C339.59 53.809 337.27 51.4964 337.27 48.6437C337.27 47.2737 337.816 45.9599 338.788 44.9912C339.76 44.0225 341.077 43.4783 342.451 43.4783C345.313 43.4783 347.633 45.7909 347.633 48.6437C347.633 51.4964 345.313 53.809 342.451 53.809Z" fill="#B5D5D8"/>
<path fill-rule="evenodd" clip-rule="evenodd" d="M514.302 90.3156C509.562 90.3156 505.719 86.473 505.719 81.7329C505.719 79.4566 506.623 77.2736 508.233 75.664C509.843 74.0544 512.026 73.1502 514.302 73.1502C519.042 73.1502 522.885 76.9928 522.885 81.7329C522.885 86.473 519.042 90.3156 514.302 90.3156Z" fill="#B5D5D8"/>
<path fill-rule="evenodd" clip-rule="evenodd" d="M565.181 65.3025C562.32 65.3025 560 62.9898 560 60.1371C560 58.7672 560.546 57.4533 561.518 56.4846C562.489 55.516 563.807 54.9717 565.181 54.9717C568.043 54.9717 570.362 57.2844 570.362 60.1371C570.362 62.9898 568.043 65.3025 565.181 65.3025Z" fill="#63868A"/>
</g>
</svg>
